<?xml version="1.0" encoding="UTF-8"?>
<svg version="1.1" xmlns="http://www.w3.org/2000/svg" width="1472" height="832">
<path d="M0 0 C28.76685925 -1.17818986 57.54668292 4.24920036 84.77490234 13.10498047 C85.69625977 13.40388184 86.61761719 13.7027832 87.56689453 14.01074219 C127.91928642 27.34852778 163.14561754 49.90940687 193.77490234 79.10498047 C194.42587891 79.70310547 195.07685547 80.30123047 195.74755859 80.91748047 C199.78852337 84.73872375 203.24270004 89.02032859 206.71240234 93.35498047 C207.2101416 93.97034668 207.70788086 94.58571289 208.22070312 95.21972656 C211.77490234 99.74744024 211.77490234 99.74744024 211.77490234 103.10498047 C209.72021484 105.30419922 209.72021484 105.30419922 206.89990234 107.79248047 C206.14942627 108.45775757 206.14942627 108.45775757 205.38378906 109.13647461 C201.50435033 112.54614234 197.50000778 115.78525477 193.43896484 118.97607422 C190.3314018 121.45939072 187.30202063 124.0247602 184.27490234 126.60498047 C179.78510521 130.42616712 175.24138203 134.15871285 170.62255859 137.82373047 C161.05753776 145.48624373 151.63338654 153.32851406 142.3046875 161.27661133 C139.02458033 164.06660528 135.69646118 166.78588816 132.33740234 169.47998047 C125.51402158 175.0214539 119.16170102 181.07248596 112.77490234 187.10498047 C108.37521852 185.53068602 105.99538859 182.04437074 103.14990234 178.54248047 C81.0734904 152.23219025 48.04637968 135.14702252 13.77490234 132.10498047 C-14.93391048 130.56691413 -43.31809318 135.10822656 -65.60009766 154.60498047 C-67.1583658 156.08772674 -68.70142726 157.5867036 -70.22509766 159.10498047 C-70.86060547 159.71728516 -71.49611328 160.32958984 -72.15087891 160.96044922 C-83.17561178 172.4251936 -87.0675824 187.60547888 -87.22509766 203.10498047 C-86.22577015 218.35397794 -78.95722683 233.38877844 -67.89306641 243.87841797 C-44.4894695 263.40997029 -13.98307884 267.76897891 15.03222656 273.21386719 C49.44252183 279.67280614 83.66505083 286.30842886 114.77490234 303.10498047 C115.67716553 303.58620361 115.67716553 303.58620361 116.59765625 304.07714844 C163.19264678 329.09638388 198.52551416 372.02389148 214.42333984 422.35888672 C218.19669702 435.04259724 220.89342824 448.72267657 220.97802734 461.96044922 C220.98504166 462.69559753 220.99205597 463.43074585 220.99928284 464.18817139 C221.01673481 466.55633715 221.02313816 468.92425269 221.02490234 471.29248047 C221.02557709 472.10210236 221.02625183 472.91172424 221.02694702 473.74588013 C221.01054956 486.12320549 220.40793861 497.97642758 217.77490234 510.10498047 C217.60861328 510.93384766 217.44232422 511.76271484 217.27099609 512.61669922 C207.44279838 561.32087901 178.0909173 606.24855598 136.77490234 634.10498047 C136.04722656 634.59659668 135.31955078 635.08821289 134.56982422 635.59472656 C101.94190207 657.38162316 65.61649014 671.38684269 26.77490234 677.10498047 C26.03079102 677.22212402 25.28667969 677.33926758 24.52001953 677.45996094 C-14.83318174 683.44926543 -55.62128407 678.14032256 -94.22509766 670.10498047 C-95.33916992 669.87439941 -96.45324219 669.64381836 -97.60107422 669.40625 C-111.64872139 666.44941568 -125.47599468 662.74860911 -139.28759766 658.85498047 C-140.07727936 658.63442993 -140.86696106 658.41387939 -141.68057251 658.18664551 C-143.91814009 657.55901405 -146.1521139 656.92003963 -148.38525391 656.27685547 C-149.40199188 655.99279846 -149.40199188 655.99279846 -150.43927002 655.70300293 C-152.05333953 655.2303228 -153.64280219 654.6750576 -155.22509766 654.10498047 C-155.55509766 653.44498047 -155.88509766 652.78498047 -156.22509766 652.10498047 C-155.34208984 651.63189453 -154.45908203 651.15880859 -153.54931641 650.67138672 C-119.46697235 632.05626481 -96.61239977 597.89287741 -78.91259766 564.29248047 C-78.40849365 563.33768799 -77.90438965 562.38289551 -77.38500977 561.39916992 C-74.28509644 555.42783429 -71.59436572 549.40217793 -69.22509766 543.10498047 C-63.33287581 543.01426418 -57.74113985 543.30911195 -51.90869141 544.08544922 C-42.86859367 545.17906153 -33.92083515 545.44435395 -24.82104492 545.4206543 C-22.29188141 545.41748584 -19.76388458 545.44111865 -17.23486328 545.46630859 C9.43278194 545.56967844 37.10987583 540.00046735 57.77490234 522.10498047 C58.58443359 521.50556641 59.39396484 520.90615234 60.22802734 520.28857422 C69.51399336 512.32714016 76.27970404 499.23270008 77.77490234 487.10498047 C78.9415023 470.21998111 75.07369471 455.57850808 64.11791992 442.43408203 C53.77270677 430.75175807 40.22475393 423.50570662 25.77490234 418.10498047 C25.13327148 417.86360352 24.49164062 417.62222656 23.83056641 417.37353516 C3.17088645 409.8261958 -19.00737958 405.78241154 -40.44775391 401.06591797 C-64.18366067 395.82700625 -87.94774491 390.06305981 -110.22509766 380.10498047 C-110.88832031 379.81300781 -111.55154297 379.52103516 -112.23486328 379.22021484 C-158.68261099 358.65718813 -193.40911484 321.85188621 -212.17089844 274.72949219 C-230.96486781 225.56619919 -233.80946856 168.70897883 -212.24316406 119.88183594 C-210.07301453 115.19664758 -207.70171686 110.63437215 -205.22509766 106.10498047 C-204.64888672 105.03763672 -204.07267578 103.97029297 -203.47900391 102.87060547 C-175.4889883 52.96692868 -123.09107876 25.69848684 -69.91259766 10.35498047 C-46.9164788 4.00754546 -23.77924774 1.12190877 0 0 Z " fill="#FFFFFF" transform="translate(608.22509765625,83.89501953125)"/>
<path d="M0 0 C0.80687256 0.00054382 1.61374512 0.00108765 2.44506836 0.00164795 C50.29803226 0.14916744 94.59113254 18.18422134 129.78515625 50.3203125 C131.7362616 52.08065798 133.72263544 53.76684323 135.75 55.4375 C160.41585208 76.44829317 176.71291605 110.27051385 179.53125 142.2734375 C182.22143431 179.3778739 171.54380473 214.29124357 147.46533203 242.76123047 C127.78822424 265.39709585 101.8055359 277.04275276 74.66998291 288.14962769 C52.52723417 297.15248638 52.52723417 297.15248638 32.0625 309.375 C31.11503906 310.03886719 30.16757812 310.70273437 29.19140625 311.38671875 C1.52538005 331.42570001 -16.33333587 357.77843171 -22.9375 391.375 C-23.11667969 392.674375 -23.29585937 393.97375 -23.48046875 395.3125 C-23.9375 398.375 -23.9375 398.375 -24.9375 399.375 C-28.0425725 399.47033653 -31.12536458 399.50051126 -34.23071289 399.48852539 C-35.20621597 399.48867142 -36.18171906 399.48881744 -37.18678284 399.4889679 C-40.42792953 399.48826833 -43.66901954 399.48047391 -46.91015625 399.47265625 C-49.15075143 399.47079222 -51.39134702 399.46936825 -53.63194275 399.46836853 C-59.5420951 399.46454213 -65.45222305 399.4547108 -71.36236572 399.44366455 C-77.38805817 399.43345306 -83.41375453 399.42887147 -89.43945312 399.42382812 C-101.27214616 399.41308864 -113.10482106 399.39601076 -124.9375 399.375 C-131.98278297 374.79741238 -114.51945309 334.63288784 -102.9375 313.375 C-94.54824256 298.311637 -84.70708606 284.15988665 -72.94140625 271.53125 C-71.07967233 269.52798076 -69.3201884 267.46926703 -67.5625 265.375 C-49.06895101 244.3653219 -24.00156461 231.15887912 1.20703125 219.95678711 C19.97500178 211.5629951 40.37152812 200.65437857 48.22265625 180.37890625 C53.33196813 165.41722954 53.97854032 150.87506259 47.3125 136.25 C39.22325229 121.42977378 25.86225208 112.55352156 9.93359375 107.76953125 C4.13437745 106.23035653 -1.33244913 105.87334504 -7.3125 105.9375 C-8.82239502 105.94994751 -8.82239502 105.94994751 -10.36279297 105.96264648 C-27.84798531 106.35881961 -43.46093771 114.21359605 -55.9375 126.375 C-67.84833237 139.52763722 -73.4379861 154.43443384 -77.9375 171.375 C-82.45197414 170.79292387 -86.09215419 169.57730239 -90.25 167.75 C-122.28381398 154.42265906 -158.49778595 149.76601909 -192.9375 148.375 C-189.1519311 115.49584537 -165.06865013 84.59067816 -142.9375 61.375 C-142.25042969 60.64667969 -141.56335938 59.91835937 -140.85546875 59.16796875 C-136.42843381 54.59667198 -131.66319644 50.55498476 -126.6953125 46.58203125 C-125.00393149 45.22844729 -123.32790028 43.85504729 -121.6796875 42.44921875 C-88.02780501 14.1323908 -43.57842605 -0.11136459 0 0 Z " fill="#FFFFFF" transform="translate(977.9375,129.625)"/>
<path d="M0 0 C13.07936818 10.87772365 22.79376522 25.86082428 25 43 C26.40630916 64.05320369 22.28650796 81.09732901 8.34375 97.43359375 C-1.21528843 107.90074083 -12.42883858 114.87054874 -26 119 C-26.67804688 119.22558594 -27.35609375 119.45117188 -28.0546875 119.68359375 C-44.47999523 124.31719223 -62.59100727 120.49019852 -77.2890625 112.62890625 C-94.01437999 102.57925583 -104.55424356 88.04640214 -109.75 69.29296875 C-113.80795409 50.49675085 -110.28193573 31.21455542 -100 15 C-88.04552358 -1.13446396 -70.92578715 -10.97959209 -51.375 -14.6875 C-32.88764786 -16.39929186 -14.8137723 -11.27089809 0 0 Z " fill="#FFFFFF" transform="translate(927,614)"/>
<path d="M0 0 C3.49450968 1.35099676 6.36208581 2.78360691 9.40625 4.9765625 C10.22706055 5.56107178 11.04787109 6.14558105 11.89355469 6.74780273 C12.75368164 7.36727783 13.61380859 7.98675293 14.5 8.625 C21.67760685 13.80798693 21.67760685 13.80798693 29.203125 18.45703125 C29.81091797 18.8010498 30.41871094 19.14506836 31.04492188 19.49951172 C32.63731646 20.37551115 34.24780581 21.21839122 35.859375 22.05859375 C38 24 38 24 38.2016449 27.21617126 C38.0135273 30.74616276 37.58553334 34.01559683 36.91430664 37.48266602 C36.67728531 38.72407852 36.44026398 39.96549103 36.19606018 41.24452209 C35.93420646 42.58100587 35.67223565 43.91746671 35.41015625 45.25390625 C35.14292325 46.64189075 34.87628585 48.02999004 34.61021423 49.41819763 C33.91097793 53.05835088 33.20414951 56.69698765 32.49554443 60.33532715 C31.63707972 64.75046139 30.78747467 69.16730716 29.9366293 73.58391476 C29.27428682 77.02119017 28.61064099 80.45819593 27.94288635 83.89442444 C27.58262611 85.75181496 27.58262611 85.75181496 27.21508789 87.64672852 C27.00412979 88.73147964 26.79317169 89.81623077 26.57582092 90.93385315 C26.00937904 93.95005825 25.49345948 96.97107747 25 100 C29.47294228 94.46473393 33.53787135 88.7650965 37.4453125 82.8203125 C41.49154216 76.71896203 45.71862424 70.73889359 49.91894531 64.74316406 C53.10236595 60.1935068 56.2621915 55.63757776 59.3046875 50.9921875 C59.79735107 50.24743164 60.29001465 49.50267578 60.79760742 48.73535156 C61.69826405 47.36783428 62.58726629 45.99254078 63.4621582 44.60839844 C66.3417145 40.26370244 66.3417145 40.26370244 69.15258789 39.13769531 C73.17625948 38.94311838 76.28826649 40.40722108 79.890625 42.0078125 C80.63584412 42.33030975 81.38106323 42.65280701 82.14886475 42.9850769 C83.71843932 43.66944303 85.28499029 44.36078045 86.84863281 45.05859375 C89.24605385 46.12324758 91.65672122 47.15231362 94.0703125 48.1796875 C95.59467675 48.84945722 97.11814789 49.52126408 98.640625 50.1953125 C99.72491791 50.65346848 99.72491791 50.65346848 100.83111572 51.12088013 C102.84472656 52.03955078 102.84472656 52.03955078 106 54 C107.19079617 57.65560679 106.94855853 60.48437471 106.18310547 64.20727539 C105.97894012 65.22346451 105.77477478 66.23965363 105.56442261 67.28663635 C105.33433502 68.37927292 105.10424744 69.47190948 104.8671875 70.59765625 C104.63347443 71.74173447 104.39976135 72.88581268 104.15896606 74.06455994 C103.66067808 76.49393306 103.15769313 78.9223468 102.65039062 81.34985352 C101.88913658 84.99481266 101.1424555 88.6425039 100.3984375 92.29101562 C97.5920975 105.95033186 94.52790779 119.50871364 91 133 C94.24396876 129.91416486 96.82879378 127.02152151 99.05859375 123.140625 C99.60233643 122.2021875 100.1460791 121.26375 100.70629883 120.296875 C101.27759521 119.29140625 101.8488916 118.2859375 102.4375 117.25 C103.04295654 116.198125 103.64841309 115.14625 104.2722168 114.0625 C110.4102779 103.36584531 116.42705457 92.60020907 122.42529297 81.82470703 C124.73066831 77.68932831 127.05150008 73.56271489 129.375 69.4375 C129.75052002 68.77041016 130.12604004 68.10332031 130.51293945 67.41601562 C131.34171933 65.9438751 132.17081529 64.47191254 133 63 C140.31967174 64.34820196 147.45821371 66.12518914 154.625 68.125 C156.13126953 68.54072266 156.13126953 68.54072266 157.66796875 68.96484375 C160.11286455 69.64010069 162.55683066 70.31852821 165 71 C164.52284267 77.13197932 161.76862438 81.91695175 158.9375 87.25 C158.40874268 88.25361572 157.87998535 89.25723145 157.33520508 90.29125977 C151.38510296 101.40708949 144.75293923 112.08650369 138.0390625 122.75244141 C136.0217317 125.96538851 134.02373685 129.18956682 132.03125 132.41796875 C122.37312663 148.0386478 112.52732818 163.66502555 101 178 C100.10087891 179.18335938 100.10087891 179.18335938 99.18359375 180.390625 C97 182 97 182 93.77099609 181.72753906 C90.2035948 181.03927959 86.9196186 180.13058688 83.48046875 178.96875 C81.7005957 178.37126953 81.7005957 178.37126953 79.88476562 177.76171875 C78.66466797 177.34535156 77.44457031 176.92898438 76.1875 176.5 C74.94806641 176.08363281 73.70863281 175.66726563 72.43164062 175.23828125 C63.33794643 172.16897321 63.33794643 172.16897321 61 171 C61.52878846 163.28895034 63.02811644 156.00802298 64.8125 148.5 C69.0682493 130.0080457 73.28434213 110.45342293 73.0625 91.375 C73.05347656 90.35148438 73.04445313 89.32796875 73.03515625 88.2734375 C73.02355469 87.52320313 73.01195312 86.77296875 73 86 C53.04965353 97.2601108 38.91554174 129.0030555 27.734375 148.13671875 C26.27094529 150.55269617 24.74658178 152.78442867 23 155 C17.77042263 153.49289345 13.36968968 151.13433901 8.6875 148.4375 C7.95982422 148.02564453 7.23214844 147.61378906 6.48242188 147.18945312 C1.15697714 144.15697714 1.15697714 144.15697714 0 143 C-0.09648248 141.15238732 -0.12187318 139.3010419 -0.12025452 137.45091248 C-0.12162918 136.24631378 -0.12300385 135.04171509 -0.12442017 133.8006134 C-0.12088056 132.45358252 -0.11724575 131.10655188 -0.11352539 129.75952148 C-0.11324352 128.35052492 -0.11340125 126.94152821 -0.1139679 125.53253174 C-0.11425589 121.6959237 -0.10835894 117.85934666 -0.10139394 114.02274585 C-0.09516063 110.01753059 -0.09455662 106.0123147 -0.09336853 102.00709534 C-0.09025515 94.41747996 -0.08204167 86.82787892 -0.07201904 79.23826987 C-0.06085812 70.59996076 -0.05534751 61.96165099 -0.05032361 53.32333648 C-0.03985906 35.54888285 -0.02225948 17.77444258 0 0 Z " fill="#FFFFFF" transform="translate(350,551)"/>
</svg>
